<?xml version="1.0" encoding="UTF-8" standalone="no"?>
<!DOCTYPE svg PUBLIC "-//W3C//DTD SVG 1.1//EN" "http://www.w3.org/Graphics/SVG/1.1/DTD/svg11.dtd">
<svg width="100%" height="100%" viewBox="0 0 3000 1100" version="1.1" xmlns="http://www.w3.org/2000/svg" xmlns:xlink="http://www.w3.org/1999/xlink" xml:space="preserve" xmlns:serif="http://www.serif.com/" style="fill-rule:evenodd;clip-rule:evenodd;stroke-linejoin:round;stroke-miterlimit:2;">
    <g transform="matrix(3.38954,0,0,3.38954,-1634.41,-3657.67)">
        <g transform="matrix(4.16667,0,0,4.16667,834.079,1219.26)">
            <path d="M0,-11.532L-6.921,-11.532L-6.921,-7.664L-0.202,-7.664L-0.202,-5.38L-6.921,-5.38L-6.921,0L0,0L0,2.283L-9.526,2.283L-9.526,-13.815L0,-13.815L0,-11.532Z" style="fill:rgb(230,230,230);fill-rule:nonzero;"/>
        </g>
        <g transform="matrix(4.16667,0,0,4.16667,846.33,1227.59)">
            <path d="M0,-9.873L2.515,-9.873L2.515,-8.965C2.977,-9.417 3.387,-9.727 3.746,-9.894C4.11,-10.068 4.543,-10.155 5.042,-10.155C5.706,-10.155 6.399,-9.952 7.122,-9.549L5.97,-7.402C5.493,-7.721 5.027,-7.881 4.573,-7.881C3.201,-7.881 2.515,-6.915 2.515,-4.984L2.515,0.282L0,0.282L0,-9.873Z" style="fill:rgb(230,230,230);fill-rule:nonzero;"/>
        </g>
        <g transform="matrix(4.16667,0,0,4.16667,883.458,1227.59)">
            <path d="M0,-9.873L2.515,-9.873L2.515,-8.965C2.977,-9.417 3.387,-9.727 3.746,-9.894C4.11,-10.068 4.543,-10.155 5.042,-10.155C5.706,-10.155 6.398,-9.952 7.122,-9.549L5.97,-7.402C5.493,-7.721 5.027,-7.881 4.573,-7.881C3.201,-7.881 2.515,-6.915 2.515,-4.984L2.515,0.282L0,0.282L0,-9.873Z" style="fill:rgb(230,230,230);fill-rule:nonzero;"/>
        </g>
        <g transform="matrix(4.16667,0,0,4.16667,916.158,1207.96)">
            <path d="M0,-0.156C0,-1.623 0.562,-2.87 1.688,-3.899C2.813,-4.927 4.185,-5.442 5.802,-5.442C7.427,-5.442 8.806,-4.924 9.939,-3.889C11.058,-2.853 11.616,-1.581 11.616,-0.073C11.616,1.449 11.054,2.725 9.928,3.754C8.795,4.775 7.405,5.286 5.757,5.286C4.125,5.286 2.758,4.765 1.654,3.722C0.551,2.694 0,1.401 0,-0.156M2.572,-0.114C2.572,0.9 2.862,1.704 3.444,2.294C4.04,2.892 4.826,3.19 5.802,3.19C6.786,3.19 7.572,2.895 8.161,2.304C8.75,1.714 9.045,0.925 9.045,-0.063C9.045,-1.049 8.75,-1.838 8.161,-2.429C7.565,-3.027 6.779,-3.326 5.802,-3.326C4.841,-3.326 4.062,-3.027 3.466,-2.429C2.869,-1.831 2.572,-1.06 2.572,-0.114" style="fill:rgb(230,230,230);fill-rule:nonzero;"/>
        </g>
        <g transform="matrix(-4.16667,0,0,4.16667,4806.58,970.43)">
            <rect x="916.908" y="44.392" width="2.515" height="17.61" style="fill:rgb(230,230,230);"/>
        </g>
        <g transform="matrix(4.16667,0,0,4.16667,1041.7,1188.93)">
            <path d="M0,3.024L0,9.561L-2.605,9.561L-2.605,-6.537L0.347,-6.537C1.793,-6.537 2.885,-6.443 3.623,-6.256C4.368,-6.067 5.024,-5.714 5.591,-5.192C6.581,-4.288 7.077,-3.148 7.077,-1.772C7.077,-0.298 6.548,0.869 5.49,1.731C4.431,2.593 3.004,3.024 1.208,3.024L0,3.024ZM0,0.772L0.973,0.772C3.366,0.772 4.562,-0.087 4.562,-1.804C4.562,-3.465 3.329,-4.296 0.861,-4.296L0,-4.296L0,0.772Z" style="fill:rgb(230,230,230);fill-rule:nonzero;"/>
        </g>
        <g transform="matrix(4.16667,0,0,4.16667,1078.79,1222.47)">
            <path d="M0,-12.865C0,-13.275 0.16,-13.63 0.48,-13.929C0.801,-14.227 1.185,-14.377 1.632,-14.377C2.087,-14.377 2.474,-14.227 2.795,-13.929C3.115,-13.637 3.275,-13.279 3.275,-12.855C3.275,-12.431 3.115,-12.069 2.795,-11.771C2.481,-11.472 2.098,-11.322 1.644,-11.322C1.189,-11.322 0.801,-11.472 0.48,-11.771C0.16,-12.069 0,-12.434 0,-12.865M2.895,1.512L0.38,1.512L0.38,-8.643L2.895,-8.643L2.895,1.512Z" style="fill:rgb(230,230,230);fill-rule:nonzero;"/>
        </g>
        <g transform="matrix(4.16667,0,0,4.16667,1139.44,1226.99)">
            <path d="M0,-9.289L0,-6.172C-0.574,-6.825 -1.088,-7.273 -1.543,-7.517C-1.99,-7.767 -2.516,-7.892 -3.119,-7.892C-4.066,-7.892 -4.852,-7.582 -5.478,-6.964C-6.104,-6.345 -6.417,-5.57 -6.417,-4.639C-6.417,-3.687 -6.116,-2.904 -5.512,-2.294C-4.901,-1.681 -4.122,-1.376 -3.175,-1.376C-2.571,-1.376 -2.038,-1.497 -1.576,-1.741C-1.129,-1.977 -0.603,-2.436 0,-3.117L0,-0.02C-1.021,0.473 -2.042,0.72 -3.063,0.72C-4.748,0.72 -6.157,0.212 -7.29,-0.802C-8.423,-1.824 -8.989,-3.092 -8.989,-4.607C-8.989,-6.123 -8.415,-7.402 -7.267,-8.444C-6.12,-9.487 -4.71,-10.009 -3.041,-10.009C-1.968,-10.009 -0.954,-9.769 0,-9.289" style="fill:rgb(230,230,230);fill-rule:nonzero;"/>
        </g>
        <g transform="matrix(4.16667,0,0,4.16667,1183.04,1228.81)">
            <path d="M0,-10.165L2.527,-10.165L2.527,-0.01L0,-0.01L0,-1.073C-1.036,-0.17 -2.15,0.282 -3.342,0.282C-4.848,0.282 -6.093,-0.226 -7.077,-1.24C-8.053,-2.276 -8.542,-3.569 -8.542,-5.119C-8.542,-6.641 -8.053,-7.909 -7.077,-8.924C-6.1,-9.939 -4.878,-10.447 -3.41,-10.447C-2.143,-10.447 -1.006,-9.959 0,-8.987L0,-10.165ZM-5.97,-5.119C-5.97,-4.146 -5.691,-3.353 -5.132,-2.742C-4.558,-2.123 -3.834,-1.814 -2.963,-1.814C-2.031,-1.814 -1.278,-2.112 -0.704,-2.71C-0.13,-3.329 0.157,-4.114 0.157,-5.067C0.157,-6.019 -0.13,-6.804 -0.704,-7.423C-1.278,-8.028 -2.023,-8.33 -2.94,-8.33C-3.805,-8.33 -4.528,-8.024 -5.109,-7.412C-5.683,-6.794 -5.97,-6.029 -5.97,-5.119" style="fill:rgb(230,230,230);fill-rule:nonzero;"/>
        </g>
        <g transform="matrix(4.16667,0,0,4.16667,1206.8,1227.59)">
            <path d="M0,-9.873L2.515,-9.873L2.515,-8.965C2.977,-9.417 3.387,-9.727 3.746,-9.894C4.11,-10.068 4.543,-10.155 5.042,-10.155C5.706,-10.155 6.398,-9.952 7.122,-9.549L5.97,-7.402C5.493,-7.721 5.027,-7.881 4.573,-7.881C3.201,-7.881 2.515,-6.915 2.515,-4.984L2.515,0.282L0,0.282L0,-9.873Z" style="fill:rgb(230,230,230);fill-rule:nonzero;"/>
        </g>
        <g transform="matrix(4.16667,0,0,4.16667,1275.28,1229.99)">
            <path d="M0,-17.902L2.527,-17.902L2.527,-0.292L0,-0.292L0,-1.356C-0.991,-0.452 -2.113,0 -3.365,0C-4.856,0 -6.093,-0.508 -7.077,-1.522C-8.053,-2.558 -8.542,-3.851 -8.542,-5.401C-8.542,-6.916 -8.053,-8.181 -7.077,-9.196C-6.108,-10.218 -4.889,-10.729 -3.421,-10.729C-2.146,-10.729 -1.006,-10.242 0,-9.269L0,-17.902ZM-5.97,-5.401C-5.97,-4.428 -5.691,-3.636 -5.132,-3.024C-4.558,-2.405 -3.834,-2.096 -2.963,-2.096C-2.031,-2.096 -1.278,-2.394 -0.704,-2.992C-0.13,-3.611 0.157,-4.396 0.157,-5.349C0.157,-6.301 -0.13,-7.086 -0.704,-7.705C-1.278,-8.31 -2.023,-8.612 -2.94,-8.612C-3.805,-8.612 -4.528,-8.306 -5.109,-7.695C-5.683,-7.076 -5.97,-6.311 -5.97,-5.401" style="fill:rgb(230,230,230);fill-rule:nonzero;"/>
        </g>
        <g transform="matrix(4.16667,0,0,4.16667,825.449,1292.64)">
            <path d="M0,-1.921L8.306,-1.921C8.306,-1.068 8.271,-0.292 8.199,0.406C8.128,1.103 7.985,1.751 7.772,2.349C7.474,3.189 7.067,3.933 6.555,4.58C6.042,5.228 5.441,5.769 4.751,6.204C4.06,6.637 3.302,6.969 2.477,7.196C1.651,7.424 0.782,7.538 -0.128,7.538C-1.381,7.538 -2.523,7.331 -3.555,6.919C-4.587,6.506 -5.473,5.925 -6.214,5.179C-6.954,4.431 -7.531,3.534 -7.943,2.488C-8.356,1.441 -8.562,0.285 -8.562,-0.982C-8.562,-2.235 -8.359,-3.384 -7.954,-4.43C-7.548,-5.477 -6.971,-6.369 -6.224,-7.11C-5.477,-7.85 -4.577,-8.427 -3.523,-8.839C-2.47,-9.252 -1.295,-9.459 0,-9.459C1.68,-9.459 3.152,-9.096 4.42,-8.37C5.686,-7.644 6.69,-6.519 7.431,-4.996L3.459,-3.352C3.088,-4.235 2.608,-4.868 2.018,-5.253C1.427,-5.637 0.755,-5.829 0,-5.829C-0.626,-5.829 -1.195,-5.712 -1.708,-5.477C-2.22,-5.242 -2.658,-4.907 -3.021,-4.473C-3.384,-4.039 -3.669,-3.516 -3.875,-2.903C-4.082,-2.292 -4.185,-1.608 -4.185,-0.854C-4.185,-0.17 -4.096,0.463 -3.918,1.047C-3.74,1.631 -3.474,2.136 -3.118,2.563C-2.762,2.99 -2.321,3.32 -1.793,3.555C-1.267,3.79 -0.655,3.907 0.042,3.907C0.456,3.907 0.854,3.862 1.239,3.769C1.623,3.677 1.968,3.527 2.274,3.32C2.58,3.114 2.833,2.848 3.032,2.52C3.231,2.193 3.366,1.794 3.438,1.324L0,1.324L0,-1.921Z" style="fill:rgb(230,230,230);fill-rule:nonzero;"/>
        </g>
        <g transform="matrix(4.16667,0,0,4.16667,875.716,1321.19)">
            <path d="M0,-10.717L3.865,-10.717L3.865,-8.924C4.278,-9.579 4.783,-10.08 5.381,-10.429C5.979,-10.778 6.676,-10.953 7.474,-10.953L7.805,-10.953C7.925,-10.953 8.064,-10.938 8.221,-10.909L8.221,-7.215C7.708,-7.472 7.153,-7.6 6.555,-7.6C5.659,-7.6 4.986,-7.333 4.537,-6.799C4.089,-6.266 3.865,-5.486 3.865,-4.461L3.865,0.236L0,0.236L0,-10.717Z" style="fill:rgb(230,230,230);fill-rule:nonzero;"/>
        </g>
        <g transform="matrix(4.16667,0,0,4.16667,959.075,1322.17)">
            <path d="M0,-10.953L3.886,-10.953L3.886,0L0,0L0,-1.217C-0.826,-0.177 -1.943,0.342 -3.352,0.342C-4.15,0.342 -4.883,0.196 -5.552,-0.095C-6.221,-0.387 -6.805,-0.797 -7.303,-1.323C-7.801,-1.85 -8.189,-2.469 -8.467,-3.182C-8.744,-3.893 -8.883,-4.668 -8.883,-5.508C-8.883,-6.292 -8.748,-7.035 -8.477,-7.74C-8.207,-8.445 -7.83,-9.06 -7.345,-9.587C-6.862,-10.114 -6.285,-10.53 -5.616,-10.836C-4.947,-11.142 -4.207,-11.295 -3.395,-11.295C-2.029,-11.295 -0.897,-10.818 0,-9.864L0,-10.953ZM-4.869,-5.508C-4.869,-5.152 -4.804,-4.822 -4.676,-4.516C-4.548,-4.209 -4.374,-3.942 -4.153,-3.715C-3.932,-3.487 -3.669,-3.309 -3.363,-3.182C-3.057,-3.053 -2.726,-2.989 -2.37,-2.989C-2.029,-2.989 -1.705,-3.053 -1.399,-3.182C-1.093,-3.309 -0.829,-3.487 -0.609,-3.715C-0.388,-3.942 -0.21,-4.206 -0.075,-4.505C0.06,-4.804 0.128,-5.125 0.128,-5.466C0.128,-5.807 0.06,-6.131 -0.075,-6.437C-0.21,-6.743 -0.388,-7.011 -0.609,-7.238C-0.829,-7.465 -1.093,-7.644 -1.399,-7.772C-1.705,-7.9 -2.029,-7.964 -2.37,-7.964C-2.726,-7.964 -3.057,-7.9 -3.363,-7.772C-3.669,-7.644 -3.932,-7.465 -4.153,-7.238C-4.374,-7.011 -4.548,-6.75 -4.676,-6.459C-4.804,-6.167 -4.869,-5.85 -4.869,-5.508" style="fill:rgb(230,230,230);fill-rule:nonzero;"/>
        </g>
        <g transform="matrix(4.16667,0,0,4.16667,1008.45,1275.11)">
            <path d="M0,16.762L-3.865,16.762L-3.865,0.342L0,0.342L0,1.559C0.826,0.52 1.951,0 3.374,0C4.156,0 4.886,0.153 5.563,0.46C6.239,0.765 6.826,1.182 7.324,1.709C7.823,2.235 8.21,2.855 8.488,3.566C8.766,4.278 8.905,5.039 8.905,5.851C8.905,6.662 8.766,7.417 8.488,8.114C8.21,8.812 7.826,9.424 7.335,9.95C6.844,10.477 6.263,10.89 5.595,11.189C4.926,11.488 4.2,11.637 3.417,11.637C2.05,11.637 0.911,11.168 0,10.228L0,16.762ZM4.869,5.851C4.869,5.509 4.808,5.185 4.687,4.879C4.566,4.574 4.391,4.306 4.164,4.079C3.936,3.851 3.669,3.669 3.363,3.534C3.057,3.399 2.726,3.331 2.37,3.331C2.029,3.331 1.708,3.395 1.409,3.523C1.111,3.652 0.851,3.83 0.63,4.057C0.409,4.285 0.232,4.552 0.097,4.858C-0.039,5.164 -0.107,5.488 -0.107,5.829C-0.107,6.171 -0.042,6.491 0.086,6.79C0.214,7.089 0.392,7.349 0.62,7.569C0.847,7.79 1.114,7.969 1.42,8.104C1.726,8.239 2.05,8.306 2.392,8.306C2.733,8.306 3.054,8.242 3.353,8.114C3.651,7.986 3.911,7.808 4.132,7.58C4.353,7.353 4.53,7.089 4.666,6.79C4.801,6.491 4.869,6.179 4.869,5.851" style="fill:rgb(230,230,230);fill-rule:nonzero;"/>
        </g>
        <g transform="matrix(4.16667,0,0,4.16667,1060.85,1322.17)">
            <path d="M0,-17.722L3.865,-17.722L3.865,-9.565C4.391,-10.206 4.925,-10.636 5.466,-10.857C6.007,-11.078 6.641,-11.189 7.367,-11.189C8.747,-11.189 9.79,-10.807 10.495,-10.046C11.2,-9.284 11.552,-8.255 11.552,-6.96L11.552,0L7.687,0L7.687,-5.53C7.687,-6.085 7.644,-6.533 7.559,-6.875C7.474,-7.217 7.331,-7.48 7.132,-7.665C6.79,-7.964 6.377,-8.113 5.893,-8.113C5.239,-8.113 4.736,-7.918 4.388,-7.526C4.039,-7.135 3.865,-6.576 3.865,-5.85L3.865,0L0,0L0,-17.722Z" style="fill:rgb(230,230,230);fill-rule:nonzero;"/>
        </g>
        <g transform="matrix(4.16667,0,0,4.16667,1125,1313.1)">
            <path d="M0,-12.982C0,-13.281 0.057,-13.562 0.172,-13.825C0.285,-14.089 0.442,-14.32 0.641,-14.52C0.84,-14.719 1.071,-14.875 1.334,-14.989C1.598,-15.103 1.879,-15.16 2.178,-15.16C2.477,-15.16 2.758,-15.103 3.022,-14.989C3.285,-14.875 3.516,-14.719 3.715,-14.52C3.915,-14.32 4.072,-14.089 4.185,-13.825C4.299,-13.562 4.356,-13.281 4.356,-12.982C4.356,-12.683 4.299,-12.402 4.185,-12.138C4.072,-11.875 3.915,-11.644 3.715,-11.444C3.516,-11.245 3.285,-11.088 3.022,-10.975C2.758,-10.86 2.477,-10.804 2.178,-10.804C1.879,-10.804 1.598,-10.86 1.334,-10.975C1.071,-11.088 0.84,-11.245 0.641,-11.444C0.442,-11.644 0.285,-11.875 0.172,-12.138C0.057,-12.402 0,-12.683 0,-12.982M4.121,2.178L0.256,2.178L0.256,-8.775L4.121,-8.775L4.121,2.178Z" style="fill:rgb(230,230,230);fill-rule:nonzero;"/>
        </g>
        <g transform="matrix(4.16667,0,0,4.16667,1189.58,1310.43)">
            <path d="M0,-5.317C-0.711,-5.687 -1.409,-5.872 -2.092,-5.872C-2.448,-5.872 -2.736,-5.801 -2.957,-5.658C-3.178,-5.516 -3.288,-5.324 -3.288,-5.082C-3.288,-4.954 -3.27,-4.851 -3.234,-4.773C-3.199,-4.694 -3.121,-4.62 -3,-4.549C-2.879,-4.477 -2.701,-4.413 -2.466,-4.356C-2.231,-4.299 -1.922,-4.228 -1.537,-4.142C-0.47,-3.929 0.327,-3.548 0.854,-3C1.381,-2.452 1.644,-1.751 1.644,-0.897C1.644,-0.256 1.517,0.32 1.26,0.833C1.004,1.345 0.648,1.776 0.192,2.124C-0.263,2.473 -0.811,2.743 -1.452,2.936C-2.092,3.128 -2.797,3.224 -3.566,3.224C-5.046,3.224 -6.505,2.804 -7.943,1.964L-6.534,-0.769C-5.452,-0.028 -4.427,0.342 -3.458,0.342C-3.103,0.342 -2.811,0.264 -2.583,0.107C-2.356,-0.05 -2.242,-0.249 -2.242,-0.491C-2.242,-0.633 -2.26,-0.751 -2.295,-0.844C-2.331,-0.936 -2.406,-1.022 -2.519,-1.099C-2.634,-1.178 -2.8,-1.249 -3.021,-1.314C-3.242,-1.378 -3.53,-1.445 -3.885,-1.517C-5.082,-1.758 -5.918,-2.118 -6.395,-2.595C-6.872,-3.071 -7.11,-3.729 -7.11,-4.569C-7.11,-5.181 -6.996,-5.733 -6.768,-6.224C-6.541,-6.716 -6.213,-7.132 -5.786,-7.473C-5.359,-7.816 -4.843,-8.079 -4.238,-8.263C-3.633,-8.449 -2.961,-8.541 -2.22,-8.541C-1.01,-8.541 0.164,-8.307 1.303,-7.836L0,-5.317Z" style="fill:rgb(230,230,230);fill-rule:nonzero;"/>
        </g>
        <g transform="matrix(4.16667,0,0,4.16667,1229.98,1295.04)">
            <path d="M0,-1.218L0,6.512L-3.865,6.512L-3.865,-1.218L-5.146,-1.218L-5.146,-4.441L-3.865,-4.441L-3.865,-7.73L0,-7.73L0,-4.441L2.199,-4.441L2.199,-1.218L0,-1.218Z" style="fill:rgb(230,230,230);fill-rule:nonzero;"/>
        </g>
        <g transform="matrix(4.16667,0,0,4.16667,1266.72,1296.64)">
            <path d="M0,1.303C0,2.968 0.782,3.801 2.349,3.801C3.188,3.801 3.822,3.459 4.249,2.776L7.985,2.776C7.231,5.282 5.345,6.534 2.327,6.534C1.402,6.534 0.555,6.396 -0.214,6.118C-0.982,5.84 -1.641,5.445 -2.189,4.933C-2.737,4.42 -3.16,3.808 -3.459,3.096C-3.758,2.385 -3.908,1.587 -3.908,0.704C-3.908,-0.206 -3.766,-1.028 -3.481,-1.761C-3.196,-2.494 -2.79,-3.118 -2.264,-3.629C-1.737,-4.142 -1.1,-4.537 -0.352,-4.815C0.395,-5.092 1.238,-5.231 2.178,-5.231C3.103,-5.231 3.936,-5.092 4.676,-4.815C5.416,-4.537 6.042,-4.135 6.555,-3.608C7.067,-3.081 7.459,-2.437 7.729,-1.676C7.999,-0.914 8.135,-0.056 8.135,0.897L8.135,1.303L0,1.303ZM4.526,-0.939C4.398,-1.48 4.135,-1.914 3.736,-2.242C3.338,-2.569 2.854,-2.733 2.285,-2.733C1.687,-2.733 1.199,-2.576 0.822,-2.263C0.445,-1.95 0.206,-1.508 0.107,-0.939L4.526,-0.939Z" style="fill:rgb(230,230,230);fill-rule:nonzero;"/>
        </g>
        <g transform="matrix(4.16667,0,0,4.16667,695.483,1178.95)">
            <path d="M0,25.406L-25.407,25.406L-25.407,0L0,25.406Z" style="fill:rgb(230,230,230);fill-rule:nonzero;"/>
        </g>
        <g transform="matrix(0,4.16667,4.16667,0,645.684,1266.13)">
            <path d="M-8.968,13.449L0,13.449L-22.417,-8.968L-22.417,0L-8.968,13.449Z" style="fill:rgb(230,230,230);fill-rule:nonzero;"/>
        </g>
        <g transform="matrix(0,4.16667,4.16667,0,689.254,1203.87)">
            <path d="M-4.484,2.992L-0.003,2.992L-7.473,-4.484L-7.473,0.003L-4.484,2.992Z" style="fill:rgb(230,230,230);fill-rule:nonzero;"/>
        </g>
        <g transform="matrix(4.16667,0,0,4.16667,705.807,1322.17)">
            <path d="M0,-44.834L-28.865,-44.834C-33.278,-44.834 -36.852,-41.26 -36.852,-36.847L-36.852,-7.982C-36.852,-3.574 -33.278,0 -28.865,0L0,0C4.407,0 7.982,-3.574 7.982,-7.982L7.982,-36.847C7.982,-41.26 4.407,-44.834 0,-44.834M3.237,-8.968C3.237,-6.637 1.345,-4.75 -0.98,-4.75L-27.884,-4.75C-30.215,-4.75 -32.102,-6.637 -32.102,-8.968L-32.102,-35.866C-32.102,-38.196 -30.215,-40.084 -27.884,-40.084L-0.98,-40.084C1.345,-40.084 3.237,-38.196 3.237,-35.866L3.237,-8.968Z" style="fill:rgb(230,230,230);fill-rule:nonzero;"/>
        </g>
    </g>
</svg>
